<?xml version="1.0" encoding="utf-8"?>
<!-- Generator: Adobe Illustrator 23.0.1, SVG Export Plug-In . SVG Version: 6.00 Build 0)  -->
<svg version="1.1" id="name" xmlns="http://www.w3.org/2000/svg" xmlns:xlink="http://www.w3.org/1999/xlink" x="0px" y="0px"
	 viewBox="0 0 964.8 113.16" style="enable-background:new 0 0 964.8 113.16;" xml:space="preserve">
<g>
	<path d="M0,111.54V1.48h18.77v91.37h39.58v18.69H0z"/>
	<path d="M65.99,111.54L97.32,1.48h24.62l32.13,110.06H133.2l-14.71-53.11c-1.77-6.84-3.56-14.34-5.39-22.49
		c-1.83-8.15-3.75-17.05-5.76-26.7h4.12c-1.97,9.7-3.81,18.65-5.51,26.85c-1.7,8.2-3.4,15.65-5.08,22.34l-14.16,53.11H65.99z
		 M85.56,85.98V68.33h48.94v17.65H85.56z"/>
	<path d="M165.4,111.54V1.48h35.76c6.98,0,12.91,1.48,17.79,4.43c4.88,2.95,8.61,7.12,11.17,12.48
		c2.56,5.37,3.85,11.67,3.85,18.91s-1.3,13.48-3.91,18.73c-2.61,5.24-6.38,9.26-11.33,12.04c-4.95,2.78-10.95,4.17-18,4.17h-24.25
		V54h21.24c3.86,0,7.02-0.63,9.48-1.88c2.46-1.26,4.31-3.13,5.54-5.61c1.23-2.49,1.85-5.55,1.85-9.2c0-3.74-0.62-6.88-1.85-9.42
		c-1.23-2.54-3.09-4.47-5.57-5.8c-2.48-1.33-5.65-1.99-9.51-1.99h-13.48v91.44H165.4z M216.42,111.54l-22.34-50.08h20.37
		l22.78,50.08H216.42z"/>
	<path d="M281.79,113.16c-7.35,0-13.74-1.35-19.17-4.06c-5.44-2.71-9.67-6.72-12.71-12.04
		c-3.04-5.32-4.64-11.87-4.8-19.65h18.28c0.25,3.69,1.17,6.78,2.77,9.27c1.6,2.49,3.73,4.35,6.4,5.58c2.67,1.23,5.68,1.85,9.05,1.85
		c3.36,0,6.29-0.58,8.77-1.74c2.48-1.16,4.42-2.79,5.82-4.91c1.39-2.12,2.09-4.58,2.09-7.39c0-2.51-0.63-4.62-1.88-6.32
		c-1.25-1.7-3.05-3.16-5.39-4.4c-2.34-1.23-5.19-2.31-8.56-3.25l-10.09-3.03c-7.76-2.26-13.83-5.82-18.22-10.67
		c-4.39-4.85-6.59-11.26-6.59-19.24c0-6.65,1.49-12.46,4.46-17.43c2.98-4.97,7.06-8.84,12.25-11.6C269.47,1.38,275.39,0,282.04,0
		c6.77,0,12.68,1.39,17.73,4.17c5.05,2.78,8.99,6.65,11.82,11.6c2.83,4.95,4.29,10.65,4.37,17.1H297.8
		c-0.33-4.43-1.9-7.85-4.71-10.27c-2.81-2.41-6.56-3.62-11.23-3.62c-3.16,0-5.87,0.54-8.13,1.63c-2.26,1.08-3.97,2.59-5.14,4.51
		s-1.75,4.11-1.75,6.57c0,2.71,0.68,4.96,2.03,6.76c1.35,1.8,3.16,3.25,5.42,4.36c2.26,1.11,4.66,2.03,7.2,2.77l8.31,2.44
		c3.86,1.03,7.45,2.44,10.77,4.21c3.32,1.77,6.24,3.95,8.74,6.54c2.5,2.58,4.44,5.65,5.82,9.2c1.37,3.55,2.06,7.63,2.06,12.26
		c0,6.65-1.4,12.45-4.19,17.4c-2.79,4.95-6.83,8.78-12.13,11.49C295.58,111.81,289.22,113.16,281.79,113.16z"/>
	<path d="M364.34,113.16c-7.35,0-13.74-1.35-19.17-4.06c-5.44-2.71-9.67-6.72-12.71-12.04
		c-3.04-5.32-4.64-11.87-4.8-19.65h18.28c0.25,3.69,1.17,6.78,2.77,9.27c1.6,2.49,3.73,4.35,6.4,5.58c2.67,1.23,5.68,1.85,9.05,1.85
		c3.36,0,6.29-0.58,8.77-1.74c2.48-1.16,4.42-2.79,5.82-4.91c1.39-2.12,2.09-4.58,2.09-7.39c0-2.51-0.63-4.62-1.88-6.32
		c-1.25-1.7-3.05-3.16-5.39-4.4c-2.34-1.23-5.19-2.31-8.56-3.25l-10.09-3.03c-7.76-2.26-13.83-5.82-18.22-10.67
		c-4.39-4.85-6.59-11.26-6.59-19.24c0-6.65,1.49-12.46,4.46-17.43c2.98-4.97,7.06-8.84,12.25-11.6C352.02,1.38,357.94,0,364.58,0
		c6.77,0,12.68,1.39,17.73,4.17c5.05,2.78,8.99,6.65,11.82,11.6c2.83,4.95,4.29,10.65,4.37,17.1h-18.16
		c-0.33-4.43-1.9-7.85-4.71-10.27c-2.81-2.41-6.56-3.62-11.23-3.62c-3.16,0-5.87,0.54-8.13,1.63c-2.26,1.08-3.97,2.59-5.14,4.51
		s-1.75,4.11-1.75,6.57c0,2.71,0.68,4.96,2.03,6.76c1.35,1.8,3.16,3.25,5.42,4.36c2.26,1.11,4.66,2.03,7.2,2.77l8.31,2.44
		c3.86,1.03,7.45,2.44,10.77,4.21c3.32,1.77,6.24,3.95,8.74,6.54c2.5,2.58,4.44,5.65,5.82,9.2c1.37,3.55,2.06,7.63,2.06,12.26
		c0,6.65-1.4,12.45-4.19,17.4c-2.79,4.95-6.83,8.78-12.13,11.49C378.13,111.81,371.77,113.16,364.34,113.16z"/>
	<path d="M453.53,113.01c-8.08,0-15.36-2.22-21.82-6.65c-6.46-4.43-11.57-10.86-15.33-19.28
		c-3.75-8.42-5.63-18.59-5.63-30.51c0-11.97,1.88-22.17,5.63-30.62c3.75-8.44,8.86-14.88,15.33-19.32C438.17,2.22,445.45,0,453.53,0
		c8.13,0,15.41,2.22,21.85,6.65c6.44,4.43,11.54,10.87,15.3,19.32c3.75,8.45,5.63,18.65,5.63,30.62c0,11.92-1.88,22.09-5.63,30.51
		c-3.76,8.42-8.85,14.85-15.3,19.28C468.94,110.8,461.66,113.01,453.53,113.01z M453.53,93c4.76,0,8.92-1.39,12.46-4.17
		c3.55-2.78,6.31-6.89,8.28-12.34c1.97-5.44,2.95-12.08,2.95-19.91c0-7.93-0.98-14.61-2.95-20.05c-1.97-5.44-4.73-9.55-8.28-12.34
		c-3.55-2.78-7.7-4.17-12.46-4.17c-4.72,0-8.86,1.4-12.43,4.21c-3.57,2.81-6.34,6.93-8.31,12.37c-1.97,5.44-2.95,12.1-2.95,19.98
		c0,7.83,0.98,14.45,2.95,19.87c1.97,5.42,4.74,9.53,8.31,12.34C444.67,91.59,448.81,93,453.53,93z"/>
	<path d="M510.41,111.54V1.48h20.93l28.99,55.69c1.48,2.86,2.97,5.96,4.49,9.31c1.52,3.35,3.07,7.07,4.65,11.15
		c1.58,4.09,3.15,8.69,4.71,13.81h-1.91c-0.29-4.09-0.54-8.44-0.77-13.07c-0.23-4.63-0.42-9.06-0.58-13.3
		c-0.16-4.23-0.25-7.83-0.25-10.78V1.48h19.21v110.06h-20.99l-26.34-50.52c-1.93-3.79-3.71-7.47-5.36-11.04
		c-1.64-3.57-3.35-7.51-5.14-11.82c-1.79-4.31-3.91-9.47-6.37-15.47h2.4c0.25,5.32,0.49,10.42,0.74,15.29
		c0.25,4.88,0.44,9.3,0.58,13.26c0.14,3.96,0.22,7.2,0.22,9.71v50.6H510.41z"/>
	<path d="M619.23,112.94c-3,0-5.52-1.22-7.57-3.66c-2.05-2.44-3.08-5.45-3.08-9.05c0-3.59,1.03-6.61,3.08-9.05
		c2.05-2.44,4.58-3.66,7.57-3.66c3,0,5.52,1.22,7.57,3.66c2.05,2.44,3.08,5.45,3.08,9.05c0,3.6-1.03,6.61-3.08,9.05
		C624.75,111.72,622.23,112.94,619.23,112.94z"/>
	<path d="M648.59,111.54V1.48h18.77v91.37h39.58v18.69H648.59z"/>
	<path d="M756.56,113.01c-8.08,0-15.36-2.22-21.82-6.65c-6.46-4.43-11.57-10.86-15.33-19.28s-5.63-18.59-5.63-30.51
		c0-11.97,1.88-22.17,5.63-30.62c3.75-8.44,8.86-14.88,15.33-19.32C741.2,2.22,748.48,0,756.56,0c8.13,0,15.41,2.22,21.85,6.65
		c6.44,4.43,11.54,10.87,15.3,19.32c3.75,8.45,5.63,18.65,5.63,30.62c0,11.92-1.88,22.09-5.63,30.51s-8.85,14.85-15.3,19.28
		C771.97,110.8,764.69,113.01,756.56,113.01z M756.56,93c4.76,0,8.91-1.39,12.46-4.17c3.55-2.78,6.31-6.89,8.28-12.34
		c1.97-5.44,2.96-12.08,2.96-19.91c0-7.93-0.99-14.61-2.96-20.05c-1.97-5.44-4.73-9.55-8.28-12.34c-3.55-2.78-7.71-4.17-12.46-4.17
		c-4.72,0-8.86,1.4-12.43,4.21c-3.57,2.81-6.34,6.93-8.31,12.37c-1.97,5.44-2.95,12.1-2.95,19.98c0,7.83,0.98,14.45,2.95,19.87
		c1.97,5.42,4.74,9.53,8.31,12.34C747.7,91.59,751.84,93,756.56,93z"/>
	<path d="M836.03,111.54L803.9,1.48h20.87l14.65,53.11c1.76,6.7,3.55,14.07,5.35,22.12s3.71,16.85,5.72,26.41h-4.06
		c1.97-9.65,3.82-18.48,5.54-26.48c1.72-8,3.43-15.35,5.11-22.05l14.16-53.11h20.74l-31.39,110.06H836.03z"/>
	<path d="M903.31,111.54V1.48h61.37v18.69h-42.59v26.59h39.39v18.39h-39.39v27.7h42.72v18.69H903.31z"/>
</g>
</svg>
