<?xml version="1.0" encoding="utf-8"?>
<!-- Generator: Adobe Illustrator 23.0.1, SVG Export Plug-In . SVG Version: 6.00 Build 0)  -->
<svg version="1.1" id="Lager_1" xmlns="http://www.w3.org/2000/svg" xmlns:xlink="http://www.w3.org/1999/xlink" x="0px" y="0px"
	 viewBox="0 0 1000 1000" style="enable-background:new 0 0 1000 1000;" xml:space="preserve">
<g>
	<g>
		<path d="M13.8,500V389.9h18.8v91.4h39.6V500H13.8z"/>
		<path d="M79.8,500l31.3-110.1h24.6L167.9,500H147l-14.7-53.1c-1.8-6.8-3.6-14.3-5.4-22.5c-1.8-8.1-3.7-17.1-5.8-26.7h4.1
			c-2,9.7-3.8,18.7-5.5,26.8c-1.7,8.2-3.4,15.6-5.1,22.3L100.5,500H79.8z M99.4,474.4v-17.7h48.9v17.7H99.4z"/>
		<path d="M179.2,500V389.9H215c7,0,12.9,1.5,17.8,4.4c4.9,3,8.6,7.1,11.2,12.5c2.6,5.4,3.8,11.7,3.8,18.9s-1.3,13.5-3.9,18.7
			c-2.6,5.2-6.4,9.3-11.3,12c-4.9,2.8-10.9,4.2-18,4.2h-24.3v-18.2h21.2c3.9,0,7-0.6,9.5-1.9c2.5-1.3,4.3-3.1,5.5-5.6
			c1.2-2.5,1.8-5.6,1.8-9.2c0-3.7-0.6-6.9-1.8-9.4c-1.2-2.5-3.1-4.5-5.6-5.8c-2.5-1.3-5.7-2-9.5-2H198V500H179.2z M230.2,500
			l-22.3-50.1h20.4L251,500H230.2z"/>
		<path d="M295.6,501.6c-7.3,0-13.7-1.4-19.2-4.1c-5.4-2.7-9.7-6.7-12.7-12c-3-5.3-4.6-11.9-4.8-19.6h18.3c0.2,3.7,1.2,6.8,2.8,9.3
			c1.6,2.5,3.7,4.3,6.4,5.6c2.7,1.2,5.7,1.8,9,1.8c3.4,0,6.3-0.6,8.8-1.7c2.5-1.2,4.4-2.8,5.8-4.9c1.4-2.1,2.1-4.6,2.1-7.4
			c0-2.5-0.6-4.6-1.9-6.3c-1.3-1.7-3-3.2-5.4-4.4c-2.3-1.2-5.2-2.3-8.6-3.3l-10.1-3c-7.8-2.3-13.8-5.8-18.2-10.7
			c-4.4-4.8-6.6-11.3-6.6-19.2c0-6.6,1.5-12.5,4.5-17.4c3-5,7.1-8.8,12.2-11.6c5.2-2.8,11.1-4.1,17.8-4.1c6.8,0,12.7,1.4,17.7,4.2
			c5,2.8,9,6.6,11.8,11.6c2.8,4.9,4.3,10.6,4.4,17.1h-18.2c-0.3-4.4-1.9-7.9-4.7-10.3c-2.8-2.4-6.6-3.6-11.2-3.6
			c-3.2,0-5.9,0.5-8.1,1.6c-2.3,1.1-4,2.6-5.1,4.5s-1.8,4.1-1.8,6.6c0,2.7,0.7,5,2,6.8c1.4,1.8,3.2,3.3,5.4,4.4
			c2.3,1.1,4.7,2,7.2,2.8l8.3,2.4c3.9,1,7.4,2.4,10.8,4.2c3.3,1.8,6.2,4,8.7,6.5c2.5,2.6,4.4,5.7,5.8,9.2c1.4,3.5,2.1,7.6,2.1,12.3
			c0,6.6-1.4,12.4-4.2,17.4c-2.8,4.9-6.8,8.8-12.1,11.5C309.4,500.3,303,501.6,295.6,501.6z"/>
		<path d="M378.1,501.6c-7.3,0-13.7-1.4-19.2-4.1c-5.4-2.7-9.7-6.7-12.7-12c-3-5.3-4.6-11.9-4.8-19.6h18.3c0.2,3.7,1.2,6.8,2.8,9.3
			c1.6,2.5,3.7,4.3,6.4,5.6c2.7,1.2,5.7,1.8,9,1.8c3.4,0,6.3-0.6,8.8-1.7c2.5-1.2,4.4-2.8,5.8-4.9c1.4-2.1,2.1-4.6,2.1-7.4
			c0-2.5-0.6-4.6-1.9-6.3c-1.3-1.7-3-3.2-5.4-4.4c-2.3-1.2-5.2-2.3-8.6-3.3l-10.1-3c-7.8-2.3-13.8-5.8-18.2-10.7
			c-4.4-4.8-6.6-11.3-6.6-19.2c0-6.6,1.5-12.5,4.5-17.4c3-5,7.1-8.8,12.2-11.6c5.2-2.8,11.1-4.1,17.8-4.1c6.8,0,12.7,1.4,17.7,4.2
			c5,2.8,9,6.6,11.8,11.6c2.8,4.9,4.3,10.6,4.4,17.1h-18.2c-0.3-4.4-1.9-7.9-4.7-10.3c-2.8-2.4-6.6-3.6-11.2-3.6
			c-3.2,0-5.9,0.5-8.1,1.6c-2.3,1.1-4,2.6-5.1,4.5s-1.8,4.1-1.8,6.6c0,2.7,0.7,5,2,6.8c1.4,1.8,3.2,3.3,5.4,4.4
			c2.3,1.1,4.7,2,7.2,2.8l8.3,2.4c3.9,1,7.4,2.4,10.8,4.2c3.3,1.8,6.2,4,8.7,6.5c2.5,2.6,4.4,5.7,5.8,9.2c1.4,3.5,2.1,7.6,2.1,12.3
			c0,6.6-1.4,12.4-4.2,17.4c-2.8,4.9-6.8,8.8-12.1,11.5C391.9,500.3,385.6,501.6,378.1,501.6z"/>
		<path d="M467.3,501.5c-8.1,0-15.4-2.2-21.8-6.6c-6.5-4.4-11.6-10.9-15.3-19.3c-3.8-8.4-5.6-18.6-5.6-30.5c0-12,1.9-22.2,5.6-30.6
			c3.8-8.4,8.9-14.9,15.3-19.3c6.5-4.4,13.7-6.6,21.8-6.6c8.1,0,15.4,2.2,21.9,6.6c6.4,4.4,11.5,10.9,15.3,19.3
			c3.8,8.4,5.6,18.7,5.6,30.6c0,11.9-1.9,22.1-5.6,30.5c-3.8,8.4-8.9,14.8-15.3,19.3C482.7,499.3,475.5,501.5,467.3,501.5z
			 M467.3,481.5c4.8,0,8.9-1.4,12.5-4.2c3.5-2.8,6.3-6.9,8.3-12.3c2-5.4,3-12.1,3-19.9c0-7.9-1-14.6-3-20.1c-2-5.4-4.7-9.6-8.3-12.3
			c-3.5-2.8-7.7-4.2-12.5-4.2c-4.7,0-8.9,1.4-12.4,4.2c-3.6,2.8-6.3,6.9-8.3,12.4c-2,5.4-3,12.1-3,20c0,7.8,1,14.5,3,19.9
			c2,5.4,4.7,9.5,8.3,12.3C458.5,480.1,462.6,481.5,467.3,481.5z"/>
		<path d="M524.2,500V389.9h20.9l29,55.7c1.5,2.9,3,6,4.5,9.3c1.5,3.3,3.1,7.1,4.6,11.2c1.6,4.1,3.1,8.7,4.7,13.8h-1.9
			c-0.3-4.1-0.5-8.4-0.8-13.1c-0.2-4.6-0.4-9.1-0.6-13.3c-0.2-4.2-0.2-7.8-0.2-10.8v-52.8h19.2V500h-21l-26.3-50.5
			c-1.9-3.8-3.7-7.5-5.4-11c-1.6-3.6-3.4-7.5-5.1-11.8c-1.8-4.3-3.9-9.5-6.4-15.5h2.4c0.2,5.3,0.5,10.4,0.7,15.3
			c0.2,4.9,0.4,9.3,0.6,13.3c0.1,4,0.2,7.2,0.2,9.7V500H524.2z"/>
		<path d="M633,501.4c-3,0-5.5-1.2-7.6-3.7c-2.1-2.4-3.1-5.5-3.1-9c0-3.6,1-6.6,3.1-9c2.1-2.4,4.6-3.7,7.6-3.7c3,0,5.5,1.2,7.6,3.7
			c2.1,2.4,3.1,5.5,3.1,9c0,3.6-1,6.6-3.1,9C638.6,500.2,636,501.4,633,501.4z"/>
		<path d="M662.4,500V389.9h18.8v91.4h39.6V500H662.4z"/>
		<path d="M773.9,501.5c-8.1,0-15.4-2.2-21.8-6.6c-6.5-4.4-11.6-10.9-15.3-19.3s-5.6-18.6-5.6-30.5c0-12,1.9-22.2,5.6-30.6
			c3.8-8.4,8.9-14.9,15.3-19.3c6.5-4.4,13.7-6.6,21.8-6.6c8.1,0,15.4,2.2,21.9,6.6c6.4,4.4,11.5,10.9,15.3,19.3
			c3.8,8.4,5.6,18.7,5.6,30.6c0,11.9-1.9,22.1-5.6,30.5s-8.9,14.8-15.3,19.3C789.3,499.3,782.1,501.5,773.9,501.5z M773.9,481.5
			c4.8,0,8.9-1.4,12.5-4.2c3.5-2.8,6.3-6.9,8.3-12.3c2-5.4,3-12.1,3-19.9c0-7.9-1-14.6-3-20.1c-2-5.4-4.7-9.6-8.3-12.3
			c-3.6-2.8-7.7-4.2-12.5-4.2c-4.7,0-8.9,1.4-12.4,4.2c-3.6,2.8-6.3,6.9-8.3,12.4c-2,5.4-3,12.1-3,20c0,7.8,1,14.5,3,19.9
			c2,5.4,4.7,9.5,8.3,12.3C765.1,480.1,769.2,481.5,773.9,481.5z"/>
		<path d="M857.6,500l-32.1-110.1h20.9l14.7,53.1c1.8,6.7,3.5,14.1,5.4,22.1s3.7,16.9,5.7,26.4h-4.1c2-9.7,3.8-18.5,5.5-26.5
			c1.7-8,3.4-15.4,5.1-22l14.2-53.1h20.7L882.2,500H857.6z"/>
		<path d="M924.9,500V389.9h61.4v18.7h-42.6v26.6h39.4v18.4h-39.4v27.7h42.7V500H924.9z"/>
	</g>
</g>
</svg>
